<svg width="373" height="373" viewBox="0 0 373 373" fill="none" xmlns="http://www.w3.org/2000/svg">
<circle cx="186.5" cy="186.5" r="186.5" fill="#FAF9F6"/>
<path d="M179.847 263.959C175.562 263.959 171.726 262.858 168.341 260.656C164.955 258.455 162.28 255.259 160.315 251.068C158.35 246.878 157.368 241.788 157.368 235.798C157.368 229.738 158.362 224.624 160.351 220.457C162.363 216.267 165.074 213.107 168.483 210.976C171.892 208.821 175.692 207.744 179.882 207.744C183.078 207.744 185.706 208.289 187.766 209.378C189.825 210.443 191.459 211.733 192.666 213.249C193.874 214.74 194.809 216.149 195.472 217.474H196.004V190.273H208.895V263H196.253V254.406H195.472C194.809 255.732 193.85 257.141 192.595 258.632C191.34 260.1 189.683 261.355 187.624 262.396C185.564 263.438 182.972 263.959 179.847 263.959ZM183.433 253.412C186.156 253.412 188.476 252.678 190.393 251.21C192.311 249.719 193.767 247.647 194.761 244.996C195.756 242.344 196.253 239.255 196.253 235.727C196.253 232.2 195.756 229.134 194.761 226.53C193.791 223.926 192.347 221.902 190.429 220.457C188.535 219.013 186.203 218.291 183.433 218.291C180.569 218.291 178.178 219.037 176.26 220.528C174.342 222.02 172.898 224.08 171.928 226.707C170.957 229.335 170.472 232.342 170.472 235.727C170.472 239.136 170.957 242.179 171.928 244.854C172.922 247.505 174.378 249.6 176.295 251.139C178.237 252.654 180.616 253.412 183.433 253.412ZM246.386 264.065C241.059 264.065 236.443 262.893 232.537 260.55C228.63 258.206 225.6 254.927 223.446 250.713C221.315 246.499 220.25 241.575 220.25 235.94C220.25 230.306 221.315 225.37 223.446 221.132C225.6 216.894 228.63 213.604 232.537 211.26C236.443 208.916 241.059 207.744 246.386 207.744C251.713 207.744 256.329 208.916 260.235 211.26C264.142 213.604 267.16 216.894 269.291 221.132C271.445 225.37 272.522 230.306 272.522 235.94C272.522 241.575 271.445 246.499 269.291 250.713C267.16 254.927 264.142 258.206 260.235 260.55C256.329 262.893 251.713 264.065 246.386 264.065ZM246.457 253.767C249.345 253.767 251.76 252.974 253.701 251.388C255.643 249.778 257.087 247.624 258.034 244.925C259.004 242.226 259.49 239.219 259.49 235.905C259.49 232.567 259.004 229.548 258.034 226.849C257.087 224.127 255.643 221.961 253.701 220.351C251.76 218.741 249.345 217.936 246.457 217.936C243.498 217.936 241.036 218.741 239.071 220.351C237.129 221.961 235.673 224.127 234.703 226.849C233.756 229.548 233.282 232.567 233.282 235.905C233.282 239.219 233.756 242.226 234.703 244.925C235.673 247.624 237.129 249.778 239.071 251.388C241.036 252.974 243.498 253.767 246.457 253.767ZM310.67 208.455V218.398H279.314V208.455H310.67ZM287.055 195.386H299.911V246.594C299.911 248.322 300.171 249.648 300.692 250.571C301.236 251.471 301.946 252.086 302.822 252.418C303.698 252.749 304.669 252.915 305.734 252.915C306.539 252.915 307.273 252.856 307.936 252.737C308.623 252.619 309.143 252.512 309.499 252.418L311.665 262.467C310.978 262.704 309.996 262.964 308.717 263.249C307.463 263.533 305.924 263.698 304.101 263.746C300.881 263.84 297.981 263.355 295.401 262.29C292.82 261.201 290.772 259.52 289.257 257.247C287.766 254.974 287.032 252.134 287.055 248.724V195.386ZM329.341 263.781C327.186 263.781 325.34 263.024 323.801 261.509C322.262 259.993 321.504 258.147 321.528 255.969C321.504 253.838 322.262 252.015 323.801 250.5C325.34 248.985 327.186 248.227 329.341 248.227C331.424 248.227 333.235 248.985 334.774 250.5C336.336 252.015 337.129 253.838 337.153 255.969C337.129 257.413 336.751 258.727 336.017 259.911C335.306 261.094 334.359 262.041 333.176 262.751C332.016 263.438 330.737 263.781 329.341 263.781Z" fill="#C1FF72"/>
</svg>
