<svg width="972" height="373" viewBox="0 0 972 373" fill="none" xmlns="http://www.w3.org/2000/svg">
<circle cx="186.5" cy="186.5" r="186.5" fill="black"/>
<path d="M179.847 263.959C175.562 263.959 171.726 262.858 168.341 260.656C164.955 258.455 162.28 255.259 160.315 251.068C158.35 246.878 157.368 241.788 157.368 235.798C157.368 229.738 158.362 224.624 160.351 220.457C162.363 216.267 165.074 213.107 168.483 210.976C171.892 208.821 175.692 207.744 179.882 207.744C183.078 207.744 185.706 208.289 187.766 209.378C189.825 210.443 191.459 211.733 192.666 213.249C193.874 214.74 194.809 216.149 195.472 217.474H196.004V190.273H208.895V263H196.253V254.406H195.472C194.809 255.732 193.85 257.141 192.595 258.632C191.34 260.1 189.683 261.355 187.624 262.396C185.564 263.438 182.972 263.959 179.847 263.959ZM183.433 253.412C186.156 253.412 188.476 252.678 190.393 251.21C192.311 249.719 193.767 247.647 194.761 244.996C195.756 242.344 196.253 239.255 196.253 235.727C196.253 232.2 195.756 229.134 194.761 226.53C193.791 223.926 192.347 221.902 190.429 220.457C188.535 219.013 186.203 218.291 183.433 218.291C180.569 218.291 178.178 219.037 176.26 220.528C174.342 222.02 172.898 224.08 171.928 226.707C170.957 229.335 170.472 232.342 170.472 235.727C170.472 239.136 170.957 242.179 171.928 244.854C172.922 247.505 174.378 249.6 176.295 251.139C178.237 252.654 180.616 253.412 183.433 253.412ZM246.386 264.065C241.059 264.065 236.443 262.893 232.537 260.55C228.63 258.206 225.6 254.927 223.446 250.713C221.315 246.499 220.25 241.575 220.25 235.94C220.25 230.306 221.315 225.37 223.446 221.132C225.6 216.894 228.63 213.604 232.537 211.26C236.443 208.916 241.059 207.744 246.386 207.744C251.713 207.744 256.329 208.916 260.235 211.26C264.142 213.604 267.16 216.894 269.291 221.132C271.445 225.37 272.522 230.306 272.522 235.94C272.522 241.575 271.445 246.499 269.291 250.713C267.16 254.927 264.142 258.206 260.235 260.55C256.329 262.893 251.713 264.065 246.386 264.065ZM246.457 253.767C249.345 253.767 251.76 252.974 253.701 251.388C255.643 249.778 257.087 247.624 258.034 244.925C259.004 242.226 259.49 239.219 259.49 235.905C259.49 232.567 259.004 229.548 258.034 226.849C257.087 224.127 255.643 221.961 253.701 220.351C251.76 218.741 249.345 217.936 246.457 217.936C243.498 217.936 241.036 218.741 239.071 220.351C237.129 221.961 235.673 224.127 234.703 226.849C233.756 229.548 233.282 232.567 233.282 235.905C233.282 239.219 233.756 242.226 234.703 244.925C235.673 247.624 237.129 249.778 239.071 251.388C241.036 252.974 243.498 253.767 246.457 253.767ZM310.67 208.455V218.398H279.314V208.455H310.67ZM287.055 195.386H299.911V246.594C299.911 248.322 300.171 249.648 300.692 250.571C301.236 251.471 301.946 252.086 302.822 252.418C303.698 252.749 304.669 252.915 305.734 252.915C306.539 252.915 307.273 252.856 307.936 252.737C308.623 252.619 309.143 252.512 309.499 252.418L311.665 262.467C310.978 262.704 309.996 262.964 308.717 263.249C307.463 263.533 305.924 263.698 304.101 263.746C300.881 263.84 297.981 263.355 295.401 262.29C292.82 261.201 290.772 259.52 289.257 257.247C287.766 254.974 287.032 252.134 287.055 248.724V195.386ZM329.341 263.781C327.186 263.781 325.34 263.024 323.801 261.509C322.262 259.993 321.504 258.147 321.528 255.969C321.504 253.838 322.262 252.015 323.801 250.5C325.34 248.985 327.186 248.227 329.341 248.227C331.424 248.227 333.235 248.985 334.774 250.5C336.336 252.015 337.129 253.838 337.153 255.969C337.129 257.413 336.751 258.727 336.017 259.911C335.306 261.094 334.359 262.041 333.176 262.751C332.016 263.438 330.737 263.781 329.341 263.781Z" fill="#C1FF72"/>
<path d="M392.043 264V162.182H431.02C438.378 162.182 444.493 163.342 449.365 165.662C454.27 167.949 457.933 171.081 460.352 175.058C462.805 179.036 464.031 183.543 464.031 188.581C464.031 192.724 463.236 196.27 461.645 199.22C460.054 202.137 457.916 204.507 455.232 206.33C452.547 208.152 449.547 209.462 446.233 210.257V211.251C449.846 211.45 453.309 212.561 456.624 214.582C459.971 216.571 462.705 219.388 464.827 223.034C466.948 226.68 468.009 231.088 468.009 236.259C468.009 241.528 466.732 246.268 464.18 250.477C461.628 254.653 457.784 257.951 452.646 260.371C447.509 262.79 441.046 264 433.257 264H392.043ZM410.487 248.588H430.324C437.019 248.588 441.841 247.312 444.791 244.76C447.774 242.175 449.266 238.86 449.266 234.817C449.266 231.801 448.52 229.083 447.028 226.663C445.537 224.211 443.416 222.288 440.665 220.896C437.914 219.471 434.633 218.759 430.821 218.759H410.487V248.588ZM410.487 205.484H428.733C431.915 205.484 434.782 204.904 437.334 203.744C439.886 202.551 441.891 200.877 443.349 198.723C444.841 196.536 445.587 193.95 445.587 190.967C445.587 187.023 444.195 183.775 441.411 181.223C438.66 178.671 434.566 177.395 429.131 177.395H410.487V205.484ZM501.256 162.182V264H483.259V162.182H501.256ZM553.072 265.491C545.615 265.491 539.152 263.851 533.683 260.57C528.214 257.288 523.972 252.698 520.956 246.798C517.973 240.899 516.482 234.005 516.482 226.116C516.482 218.228 517.973 211.318 520.956 205.385C523.972 199.452 528.214 194.845 533.683 191.564C539.152 188.283 545.615 186.642 553.072 186.642C560.53 186.642 566.993 188.283 572.462 191.564C577.93 194.845 582.156 199.452 585.139 205.385C588.155 211.318 589.663 218.228 589.663 226.116C589.663 234.005 588.155 240.899 585.139 246.798C582.156 252.698 577.93 257.288 572.462 260.57C566.993 263.851 560.53 265.491 553.072 265.491ZM553.172 251.074C557.215 251.074 560.596 249.964 563.314 247.743C566.032 245.489 568.054 242.473 569.379 238.695C570.738 234.916 571.418 230.707 571.418 226.067C571.418 221.393 570.738 217.168 569.379 213.389C568.054 209.578 566.032 206.545 563.314 204.291C560.596 202.037 557.215 200.911 553.172 200.911C549.029 200.911 545.582 202.037 542.831 204.291C540.113 206.545 538.075 209.578 536.716 213.389C535.39 217.168 534.727 221.393 534.727 226.067C534.727 230.707 535.39 234.916 536.716 238.695C538.075 242.473 540.113 245.489 542.831 247.743C545.582 249.964 549.029 251.074 553.172 251.074ZM638.248 265.491C630.625 265.491 624.079 263.818 618.61 260.47C613.175 257.123 608.982 252.499 606.032 246.599C603.116 240.667 601.657 233.839 601.657 226.116C601.657 218.361 603.149 211.517 606.132 205.584C609.115 199.618 613.324 194.978 618.76 191.663C624.228 188.316 630.691 186.642 638.149 186.642C644.347 186.642 649.832 187.786 654.605 190.072C659.411 192.326 663.239 195.525 666.089 199.668C668.94 203.777 670.564 208.583 670.961 214.085H653.76C653.064 210.406 651.406 207.34 648.788 204.888C646.203 202.402 642.739 201.159 638.397 201.159C634.718 201.159 631.487 202.153 628.703 204.142C625.919 206.098 623.748 208.915 622.19 212.594C620.665 216.273 619.903 220.681 619.903 225.818C619.903 231.022 620.665 235.496 622.19 239.241C623.715 242.954 625.852 245.821 628.603 247.842C631.387 249.831 634.652 250.825 638.397 250.825C641.049 250.825 643.419 250.328 645.507 249.334C647.628 248.306 649.401 246.831 650.826 244.909C652.252 242.987 653.229 240.65 653.76 237.899H670.961C670.53 243.302 668.94 248.091 666.189 252.267C663.438 256.41 659.692 259.658 654.953 262.011C650.213 264.331 644.645 265.491 638.248 265.491ZM702.146 240.037L702.096 218.311H704.979L732.423 187.636H753.452L719.695 225.222H715.967L702.146 240.037ZM685.739 264V162.182H703.737V264H685.739ZM733.665 264L708.808 229.249L720.938 216.571L755.192 264H733.665ZM796.109 265.491C788.452 265.491 781.84 263.901 776.272 260.719C770.737 257.504 766.478 252.963 763.495 247.097C760.512 241.197 759.021 234.253 759.021 226.266C759.021 218.411 760.512 211.517 763.495 205.584C766.511 199.618 770.72 194.978 776.123 191.663C781.525 188.316 787.872 186.642 795.164 186.642C799.871 186.642 804.312 187.404 808.488 188.929C812.697 190.42 816.409 192.741 819.624 195.889C822.872 199.038 825.424 203.048 827.281 207.92C829.137 212.759 830.065 218.527 830.065 225.222V230.74H767.472V218.609H812.813C812.78 215.162 812.034 212.097 810.576 209.412C809.118 206.694 807.079 204.556 804.461 202.999C801.876 201.441 798.86 200.662 795.413 200.662C791.734 200.662 788.502 201.557 785.718 203.347C782.934 205.103 780.763 207.423 779.205 210.307C777.681 213.157 776.902 216.289 776.869 219.703V230.293C776.869 234.734 777.681 238.545 779.305 241.727C780.929 244.876 783.199 247.295 786.116 248.986C789.032 250.643 792.446 251.472 796.357 251.472C798.976 251.472 801.345 251.107 803.467 250.378C805.588 249.616 807.427 248.505 808.985 247.047C810.543 245.589 811.719 243.782 812.515 241.628L829.319 243.517C828.258 247.958 826.237 251.836 823.254 255.151C820.304 258.432 816.525 260.984 811.918 262.807C807.311 264.597 802.041 265.491 796.109 265.491ZM845.29 264V187.636H862.74V200.364H863.536C864.928 195.955 867.314 192.558 870.695 190.172C874.109 187.752 878.003 186.543 882.378 186.543C883.373 186.543 884.483 186.592 885.709 186.692C886.969 186.758 888.013 186.874 888.841 187.04V203.595C888.079 203.33 886.869 203.098 885.212 202.899C883.588 202.667 882.014 202.551 880.489 202.551C877.208 202.551 874.258 203.264 871.64 204.689C869.054 206.081 867.016 208.02 865.525 210.506C864.033 212.991 863.287 215.858 863.287 219.107V264H845.29ZM961.153 207.821L944.747 209.611C944.283 207.954 943.471 206.396 942.311 204.938C941.184 203.479 939.659 202.303 937.737 201.408C935.815 200.513 933.461 200.065 930.677 200.065C926.932 200.065 923.783 200.877 921.231 202.501C918.712 204.125 917.469 206.23 917.502 208.815C917.469 211.036 918.281 212.842 919.939 214.234C921.629 215.626 924.413 216.77 928.291 217.665L941.316 220.449C948.542 222.007 953.911 224.476 957.424 227.857C960.971 231.237 962.761 235.662 962.794 241.131C962.761 245.937 961.352 250.179 958.568 253.858C955.817 257.504 951.989 260.354 947.083 262.409C942.178 264.464 936.544 265.491 930.18 265.491C920.833 265.491 913.31 263.536 907.609 259.625C901.908 255.681 898.511 250.196 897.417 243.169L914.967 241.479C915.762 244.926 917.453 247.527 920.038 249.284C922.623 251.041 925.987 251.919 930.13 251.919C934.406 251.919 937.836 251.041 940.422 249.284C943.04 247.527 944.349 245.357 944.349 242.771C944.349 240.584 943.504 238.777 941.814 237.352C940.156 235.927 937.571 234.833 934.058 234.071L921.032 231.337C913.708 229.812 908.288 227.243 904.775 223.631C901.262 219.985 899.522 215.378 899.555 209.81C899.522 205.103 900.798 201.027 903.383 197.58C906.002 194.099 909.631 191.415 914.271 189.526C918.944 187.603 924.33 186.642 930.429 186.642C939.377 186.642 946.421 188.548 951.558 192.359C956.728 196.171 959.927 201.325 961.153 207.821Z" fill="black"/>
</svg>
